<?xml version="1.0" encoding="UTF-8" standalone="no"?><!DOCTYPE svg PUBLIC "-//W3C//DTD SVG 1.1//EN" "http://www.w3.org/Graphics/SVG/1.1/DTD/svg11.dtd"><svg width="100%" height="100%" viewBox="0 0 200 157" version="1.1" xmlns="http://www.w3.org/2000/svg" xmlns:xlink="http://www.w3.org/1999/xlink" xml:space="preserve" xmlns:serif="http://www.serif.com/" style="fill-rule:evenodd;clip-rule:evenodd;stroke-linejoin:round;stroke-miterlimit:2;"><g id="logo_w_bg"><g id="logo"><g id="wallet"><path d="M189.237,-0l-178.474,-0c-5.94,0 -10.763,4.823 -10.763,10.763l-0,134.724c-0,5.94 4.823,10.763 10.763,10.763l178.474,-0c5.94,-0 10.763,-4.823 10.763,-10.763l0,-134.724c0,-5.94 -4.823,-10.763 -10.763,-10.763Z" style="fill:#864e12;"/><path id="wallet_fold" d="M186.035,0c-100.843,0 -182.715,5.732 -182.715,12.793c0,7.061 81.872,12.793 182.715,12.793c-87.333,-0.571 -158.237,-6.107 -158.237,-12.793c0,-6.686 70.904,-12.222 158.237,-12.793Z"/></g><g id="dollar"><g id="bill"><rect id="bill_base" x="7.227" y="29.297" width="185.547" height="97.656" style="fill:#70c033;"/><path id="bill_surface" d="M182.813,57.373c-11.453,0 -20.752,-9.299 -20.752,-20.752l-124.122,0c-0,11.453 -9.299,20.752 -20.752,20.752l-0,41.504c11.453,-0 20.752,9.299 20.752,20.752l124.122,-0c0,-11.453 9.299,-20.752 20.752,-20.752l0,-41.504Z" style="fill:#3d9f33;"/></g><g id="eye"><path id="eye_base" d="M132.15,78.107c-3.193,-7.908 -16.514,-14.312 -32.172,-14.288c-15.659,0.025 -28.959,6.47 -32.128,14.389c3.227,7.872 16.536,14.247 32.172,14.223c15.636,-0.024 28.925,-6.441 32.128,-14.324Z" style="fill:#70c033;"/><ellipse id="pupil" cx="100" cy="78.125" rx="7.326" ry="7.217"/></g></g></g></g></svg>